<!DOCTYPE svg PUBLIC "-//W3C//DTD SVG 1.1//EN" "http://www.w3.org/Graphics/SVG/1.1/DTD/svg11.dtd">
<!-- Uploaded to: SVG Repo, www.svgrepo.com, Transformed by: SVG Repo Mixer Tools -->
<svg version="1.1" id="Icons" xmlns="http://www.w3.org/2000/svg" xmlns:xlink="http://www.w3.org/1999/xlink" viewBox="-3.2 -3.2 38.40 38.40" xml:space="preserve" width="800px" height="800px" fill="#ffffff" stroke="#ffffff" transform="rotate(0)matrix(1, 0, 0, 1, 0, 0)">
<g id="SVGRepo_bgCarrier" stroke-width="0" transform="translate(0,0), scale(1)">
<path transform="translate(-3.2, -3.2), scale(1.2)" d="M16,28.342470372095704C18.454963168957235,27.78749916558529,20.416211468046644,26.32797874244537,22.618762551813305,25.109945112207484C25.22521825822683,23.66854802973534,29.32841631851585,23.4554876626932,30.058602830181663,20.567916961041703C30.80085255853833,17.63264147365714,26.542582220110216,15.755515665484838,25.721134161728067,12.841412041131989C24.83858218994735,9.710541046426346,27.268202423269194,5.847419137273336,25.201088834521016,3.3357876795160966C23.141399317915273,0.833176787072293,19.22440892837788,0.7003196107469216,16.000000000000004,1.0298180878162384C12.972410026458098,1.339203872197581,10.356944537051092,3.077508129287589,8.070745117389894,5.086316936767668C5.9609648031951235,6.9401120346732625,4.690857422695526,9.38699046766372,3.5620281555478215,11.958657966547154C2.3012080077993775,14.83102342540429,0.5718735504535372,17.739961138380064,1.1642883964562163,20.820414907622446C1.788175178798064,24.064517251129136,3.8333414032650666,27.19659067325568,6.77980103671425,28.690515156213557C9.591754626150735,30.1162419045155,12.924854760935917,29.037640501366134,16,28.342470372095704" fill="#74c69d" strokewidth="0"/>
</g>
<g id="SVGRepo_tracerCarrier" stroke-linecap="round" stroke-linejoin="round" stroke="#740ff0" stroke-width="6.4"> <style type="text/css"> .st0{fill:none;stroke:#ffffff;stroke-width:2;stroke-linecap:round;stroke-linejoin:round;stroke-miterlimit:10;} .st1{fill:none;stroke:#ffffff;stroke-width:2;stroke-linecap:round;stroke-linejoin:round;stroke-miterlimit:10;stroke-dasharray:3;} .st2{fill:none;stroke:#ffffff;stroke-width:2;stroke-linejoin:round;stroke-miterlimit:10;} .st3{fill:none;} </style> <path class="st0" d="M9,4H5C3.9,4,3,4.9,3,6v15c0,1.1,0.9,2,2,2h22c1.1,0,2-0.9,2-2V6c0-1.1-0.9-2-2-2h-4"/> <line class="st0" x1="9" y1="29" x2="23" y2="29"/> <path class="st0" d="M13,23c0,2.1-0.7,4.6-1.8,6"/> <path class="st0" d="M20.8,29c-1.1-1.4-1.8-3.9-1.8-6"/> <rect x="10" y="7" class="st0" width="12" height="4"/> <rect x="11" y="11" class="st0" width="10" height="7"/> <path class="st0" d="M14,7h2V5c0-1.1-0.9-2-2-2h0c-1.1,0-2,0.9-2,2v0C12,6.1,12.9,7,14,7z"/> <path class="st0" d="M18,7h-2V5c0-1.1,0.9-2,2-2h0c1.1,0,2,0.9,2,2v0C20,6.1,19.1,7,18,7z"/> <rect x="-144" y="-576" class="st3" width="536" height="680"/> </g>
<g id="SVGRepo_iconCarrier"> <style type="text/css"> .st0{fill:none;stroke:#ffffff;stroke-width:2;stroke-linecap:round;stroke-linejoin:round;stroke-miterlimit:10;} .st1{fill:none;stroke:#ffffff;stroke-width:2;stroke-linecap:round;stroke-linejoin:round;stroke-miterlimit:10;stroke-dasharray:3;} .st2{fill:none;stroke:#ffffff;stroke-width:2;stroke-linejoin:round;stroke-miterlimit:10;} .st3{fill:none;} </style> <path class="st0" d="M9,4H5C3.9,4,3,4.9,3,6v15c0,1.1,0.9,2,2,2h22c1.1,0,2-0.9,2-2V6c0-1.1-0.9-2-2-2h-4"/> <line class="st0" x1="9" y1="29" x2="23" y2="29"/> <path class="st0" d="M13,23c0,2.1-0.7,4.6-1.8,6"/> <path class="st0" d="M20.8,29c-1.1-1.4-1.8-3.9-1.8-6"/> <rect x="10" y="7" class="st0" width="12" height="4"/> <rect x="11" y="11" class="st0" width="10" height="7"/> <path class="st0" d="M14,7h2V5c0-1.1-0.9-2-2-2h0c-1.1,0-2,0.9-2,2v0C12,6.1,12.9,7,14,7z"/> <path class="st0" d="M18,7h-2V5c0-1.1,0.9-2,2-2h0c1.1,0,2,0.9,2,2v0C20,6.1,19.1,7,18,7z"/> <rect x="-144" y="-576" class="st3" width="536" height="680"/> </g>
</svg>